# xmcd
# 
# Track frame offsets:
#     150
#     17713
#     43269
# 
# Disc length: 630
# 
# Revision: 0
# Processed by: cddbd v1.5.2PL0 Copyright (c) Steve Scherf et al.
# Submitted via: BonkEnc v1.0.6
# 
DISCID=1f027403
DTITLE=Kevin Denney - That's Just Jessie
DYEAR=2002
DGENRE=Country
TTITLE0=That's Just Jessie
TTITLE1=Correct Me If I'm Right
TTITLE2=Data track
EXTD=
EXTT0=
EXTT1=
EXTT2=
PLAYORDER=
